<svg width="24" height="24" viewBox="0 0 24 24" fill="none" xmlns="http://www.w3.org/2000/svg">
<path d="M19 19.7758H5C3.3 19.7758 2 18.4318 2 16.8958V8.15982V7.19982C2 5.56782 3.3 4.31982 5 4.31982H19C20.7 4.31982 22 5.66382 22 7.19982V8.15982V16.8958C22 18.4318 20.7 19.7758 19 19.7758ZM4 9.98382V16.8958C4 17.4718 4.4 17.8558 5 17.8558H19C19.6 17.8558 20 17.3758 20 16.8958V9.98382L13.7 14.1118C12.7 14.7838 11.4 14.7838 10.4 14.1118L4 9.98382ZM4 7.67982L11.4 12.4798C11.7 12.6718 12.2 12.6718 12.5 12.4798L20 7.67982V7.19982C20 6.62382 19.6 6.23982 19 6.23982H5C4.4 6.23982 4 6.71982 4 7.19982V7.67982Z" fill="#2A47AA"/>
</svg>
