<svg width="24" height="24" viewBox="0 0 24 24" fill="none" xmlns="http://www.w3.org/2000/svg">
<g clip-path="url(#clip0_109_1166)">
<path d="M13.933 2.9988C13.3809 2.97251 12.8292 3.05778 12.3109 3.24953C11.7925 3.44128 11.3181 3.73556 10.916 4.11479C10.5278 4.5283 10.2273 5.01616 10.0328 5.54895C9.83822 6.08174 9.75358 6.64842 9.784 7.2148V9.62979H7V12.8538H9.77698V21.1208H13.11V12.8538H16.3V9.62979H13.108V7.5708C13.0767 7.15268 13.1924 6.73674 13.435 6.39479C13.6013 6.24566 13.7975 6.13359 14.0104 6.06601C14.2233 5.99843 14.4481 5.97687 14.67 6.00279H16.403V3.0188" fill="white"/>
</g>
<defs>
<clipPath id="clip0_109_1166">
<rect width="24" height="24" fill="white"/>
</clipPath>
</defs>
</svg>
