<svg width="16" height="16" viewBox="0 0 16 16" fill="none" xmlns="http://www.w3.org/2000/svg">
<path fill-rule="evenodd" clip-rule="evenodd" d="M9.4277 2.64234C8.59782 1.96102 7.40218 1.96102 6.5723 2.64234L2.5482 5.94607C2.20115 6.231 2 6.65636 2 7.10538V12.4998C2 13.3283 2.67157 13.9998 3.5 13.9998H12.5C13.3284 13.9998 14 13.3283 14 12.4998V7.10538C14 6.65636 13.7989 6.231 13.4518 5.94607L9.4277 2.64234ZM5.62049 1.483C7.00363 0.347463 8.99637 0.347463 10.3795 1.483L14.4036 4.78674C15.0977 5.35657 15.5 6.20738 15.5 7.10538V12.4998C15.5 14.1567 14.1568 15.4998 12.5 15.4998H3.5C1.84314 15.4998 0.5 14.1567 0.5 12.4998V7.10538C0.5 6.20738 0.902307 5.35657 1.59639 4.78674L5.62049 1.483Z" fill="#858585"/>
</svg>
