<svg width="24" height="24" viewBox="0 0 24 24" fill="none" xmlns="http://www.w3.org/2000/svg">
<path d="M12.067 3C9.6 3 9.293 3.011 8.333 3.055C7.57917 3.06977 6.83329 3.21212 6.127 3.476C5.52409 3.70398 4.9781 4.06058 4.527 4.521C4.06686 4.97232 3.7103 5.51825 3.482 6.121C3.21599 6.82483 3.0716 7.56876 3.055 8.321C3.011 9.292 3 9.6 3 12.067C3 14.534 3.011 14.832 3.055 15.8C3.07043 16.5518 3.21277 17.2956 3.476 18C3.70893 18.6018 4.06483 19.1484 4.52095 19.6048C4.97707 20.0613 5.52339 20.4176 6.125 20.651C6.82927 20.9147 7.57314 21.057 8.325 21.072C9.293 21.115 9.601 21.127 12.058 21.127C14.515 21.127 14.826 21.116 15.791 21.072C16.5428 21.0563 17.2865 20.914 17.991 20.651C18.5932 20.418 19.1401 20.0619 19.5968 19.6054C20.0535 19.1489 20.4098 18.6021 20.643 18C20.9057 17.2955 21.048 16.5518 21.064 15.8C21.107 14.833 21.119 14.525 21.119 12.067C21.119 9.609 21.108 9.298 21.064 8.334C21.0481 7.58224 20.9058 6.83851 20.643 6.134C20.4147 5.53124 20.0582 4.9853 19.598 4.534C19.1476 4.07368 18.6023 3.71707 18 3.489C17.2964 3.22116 16.5526 3.07442 15.8 3.055C14.829 3.011 14.523 3 12.06 3H12.067ZM11.249 4.633H12.066C14.486 4.633 14.773 4.641 15.727 4.685C16.3022 4.69275 16.8719 4.7993 17.411 5C17.805 5.14559 18.1614 5.37761 18.454 5.679C18.755 5.97153 18.9864 6.32799 19.131 6.722C19.3308 7.2592 19.4364 7.82687 19.443 8.4C19.487 9.355 19.496 9.641 19.496 12.06C19.496 14.479 19.487 14.767 19.443 15.721C19.4365 16.2935 19.332 16.8607 19.134 17.398C18.9832 17.7887 18.7522 18.1435 18.456 18.4396C18.1597 18.7356 17.8048 18.9664 17.414 19.117C16.8752 19.3173 16.3058 19.4228 15.731 19.429C14.776 19.472 14.49 19.482 12.07 19.482C9.65 19.482 9.363 19.471 8.407 19.429C7.83225 19.4224 7.26292 19.3169 6.724 19.117C6.33009 18.9721 5.97368 18.7408 5.681 18.44C5.37918 18.1485 5.14648 17.7932 5 17.4C4.79948 16.8622 4.69293 16.2939 4.685 15.72C4.642 14.765 4.633 14.479 4.633 12.057C4.633 9.635 4.642 9.352 4.685 8.397C4.69282 7.82242 4.79937 7.25347 5 6.715C5.14712 6.32278 5.37671 5.9667 5.67327 5.67083C5.96983 5.37497 6.32643 5.1462 6.719 5C7.25729 4.80036 7.82592 4.69482 8.4 4.688C9.236 4.649 9.56 4.639 11.249 4.637V4.633ZM16.9 6.133C16.6848 6.133 16.4745 6.19681 16.2955 6.31636C16.1166 6.43591 15.9772 6.60583 15.8948 6.80464C15.8125 7.00345 15.7909 7.22221 15.8329 7.43326C15.8749 7.64431 15.9785 7.83817 16.1307 7.99033C16.2828 8.14249 16.4767 8.24611 16.6877 8.28809C16.8988 8.33008 17.1176 8.30853 17.3164 8.22618C17.5152 8.14383 17.6851 8.00438 17.8046 7.82546C17.9242 7.64654 17.988 7.43619 17.988 7.221C17.9869 6.93314 17.8718 6.65743 17.6679 6.45425C17.464 6.25108 17.1879 6.137 16.9 6.137V6.133ZM12.067 7.409C11.1462 7.40821 10.2459 7.6805 9.47994 8.19143C8.71395 8.70235 8.11668 9.42897 7.76368 10.2794C7.41068 11.1298 7.31781 12.0658 7.49681 12.969C7.67581 13.8721 8.11864 14.702 8.7693 15.3535C9.41995 16.005 10.2492 16.4489 11.1522 16.629C12.0551 16.8092 12.9912 16.7175 13.8421 16.3656C14.6929 16.0137 15.4203 15.4174 15.9322 14.652C16.4442 13.8867 16.7176 12.9868 16.718 12.066C16.7185 10.8318 16.2289 9.64784 15.3567 8.77454C14.4845 7.90124 13.3012 7.41006 12.067 7.409ZM12.067 9.041C12.7658 9.04185 13.4426 9.28489 13.9823 9.72875C14.522 10.1726 14.8911 10.7898 15.0268 11.4753C15.1625 12.1607 15.0564 12.872 14.7266 13.488C14.3968 14.104 13.8636 14.5867 13.2178 14.8537C12.5721 15.1207 11.8538 15.1557 11.1852 14.9526C10.5166 14.7495 9.93913 14.3209 9.55106 13.7398C9.163 13.1587 8.98837 12.461 9.05691 11.7656C9.12546 11.0703 9.43294 10.4201 9.927 9.926C10.208 9.64499 10.5416 9.42217 10.9088 9.2703C11.276 9.11844 11.6696 9.04052 12.067 9.041Z" fill="white"/>
</svg>
