<svg width="16" height="9" viewBox="0 0 16 9" fill="none" xmlns="http://www.w3.org/2000/svg">
<path d="M11.5334 0.699865C11.2734 0.439865 10.8534 0.439865 10.5934 0.699865L6.83343 4.45986L7.77343 5.39987L11.5334 1.6332C11.7868 1.37986 11.7868 0.953198 11.5334 0.699865ZM14.3601 0.693198L7.77343 7.27987L5.45343 4.96653C5.19343 4.70653 4.77343 4.70653 4.51343 4.96653C4.25343 5.22653 4.25343 5.64653 4.51343 5.90653L7.30009 8.6932C7.56009 8.9532 7.98009 8.9532 8.24009 8.6932L15.3001 1.63986C15.5601 1.37986 15.5601 0.959865 15.3001 0.699865H15.2934C15.0401 0.433198 14.6201 0.433198 14.3601 0.693198ZM0.746758 5.9132L3.53343 8.69987C3.79343 8.95986 4.21342 8.95986 4.47343 8.69987L4.94009 8.2332L1.68676 4.96653C1.42676 4.70653 1.00676 4.70653 0.746758 4.96653C0.486758 5.22653 0.486758 5.6532 0.746758 5.9132Z" fill="#58BCF8"/>
</svg>
