<svg width="32" height="32" viewBox="0 0 32 32" fill="none" xmlns="http://www.w3.org/2000/svg">
<path d="M5.68014 4.34668C5.51835 4.52722 5.39384 4.73796 5.31375 4.96678C5.23366 5.1956 5.19958 5.43798 5.21347 5.68001V26.2533C5.19958 26.4954 5.23366 26.7378 5.31375 26.9666C5.39384 27.1954 5.51835 27.4061 5.68014 27.5867L5.77347 27.68L17.3335 16.0933V15.9067L5.68014 4.34668Z" fill="url(#paint0_linear_58_353)"/>
<path d="M21.1466 20.0001L17.3333 16.1867V15.9067L21.1466 12.0801H21.2399L25.8133 14.7467C26.0835 14.8496 26.3162 15.0322 26.4803 15.2704C26.6445 15.5085 26.7324 15.7909 26.7324 16.0801C26.7324 16.3693 26.6445 16.6517 26.4803 16.8898C26.3162 17.1279 26.0835 17.3105 25.8133 17.4134L21.1466 20.0801V20.0001Z" fill="url(#paint1_linear_58_353)"/>
<path d="M21.2399 19.92L17.2399 16L5.67993 27.6533C6.05326 28.12 6.79993 28.12 7.63993 27.6533L21.2399 19.92" fill="url(#paint2_linear_58_353)"/>
<path d="M21.2399 12.0804L7.63993 4.34707C6.79993 3.8804 6.05326 3.8804 5.67993 4.34707L17.2399 16.0004L21.2399 12.0804Z" fill="url(#paint3_linear_58_353)"/>
<defs>
<linearGradient id="paint0_linear_58_353" x1="16.2535" y1="5.48001" x2="0.61347" y2="21.12" gradientUnits="userSpaceOnUse">
<stop stop-color="#00A0FF"/>
<stop offset="0.01" stop-color="#00A1FF"/>
<stop offset="0.26" stop-color="#00BEFF"/>
<stop offset="0.51" stop-color="#00D2FF"/>
<stop offset="0.76" stop-color="#00DFFF"/>
<stop offset="1" stop-color="#00E3FF"/>
</linearGradient>
<linearGradient id="paint1_linear_58_353" x1="27.4666" y1="16.0534" x2="4.91992" y2="16.0534" gradientUnits="userSpaceOnUse">
<stop stop-color="#FFE000"/>
<stop offset="0.41" stop-color="#FFBD00"/>
<stop offset="0.78" stop-color="#FFA500"/>
<stop offset="1" stop-color="#FF9C00"/>
</linearGradient>
<linearGradient id="paint2_linear_58_353" x1="19.0666" y1="18.1333" x2="-2.14673" y2="39.3467" gradientUnits="userSpaceOnUse">
<stop stop-color="#FF3A44"/>
<stop offset="1" stop-color="#C31162"/>
</linearGradient>
<linearGradient id="paint3_linear_58_353" x1="2.73327" y1="-2.46626" x2="12.1999" y2="7.0004" gradientUnits="userSpaceOnUse">
<stop stop-color="#32A071"/>
<stop offset="0.07" stop-color="#2DA771"/>
<stop offset="0.48" stop-color="#15CF74"/>
<stop offset="0.8" stop-color="#06E775"/>
<stop offset="1" stop-color="#00F076"/>
</linearGradient>
</defs>
</svg>
