<svg width="25" height="24" viewBox="0 0 25 24" fill="none" xmlns="http://www.w3.org/2000/svg">
<path fill-rule="evenodd" clip-rule="evenodd" d="M4.6665 6C4.6665 3.79086 6.45736 2 8.6665 2H16.6665C18.8756 2 20.6665 3.79086 20.6665 6V20.0568C20.6665 21.6836 18.8278 22.6298 17.504 21.6843L12.6665 18.2289L7.82898 21.6843C6.50524 22.6298 4.6665 21.6836 4.6665 20.0568V6ZM8.6665 4C7.56193 4 6.6665 4.89543 6.6665 6V20.0568L11.504 16.6014C12.1994 16.1047 13.1336 16.1047 13.829 16.6014L18.6665 20.0568V6C18.6665 4.89543 17.7711 4 16.6665 4H8.6665Z" fill="black"/>
</svg>
