<svg width="12" height="12" viewBox="0 0 12 12" fill="none" xmlns="http://www.w3.org/2000/svg">
<path fill-rule="evenodd" clip-rule="evenodd" d="M2.31243 0.476441C3.92455 -0.0612806 5.55366 0.948556 6.00617 2.58352C6.31451 3.69762 6.02249 4.86583 5.31041 5.66576C5.45625 5.85464 5.61561 6.03625 5.78861 6.20938C5.96077 6.38166 6.14129 6.54043 6.32898 6.68578C7.12863 5.96807 8.30037 5.67277 9.41769 5.98246C11.0523 6.43556 12.0603 8.06592 11.5234 9.67797C11.1711 10.7357 10.5143 11.3783 9.63826 11.5899C8.82426 11.7864 7.9466 11.5775 7.17253 11.2557C5.61349 10.6076 4.07403 9.33102 3.37096 8.62742C2.6513 7.90722 1.38022 6.36554 0.738008 4.80944C0.419097 4.03671 0.213755 3.16231 0.410766 2.35204C0.62272 1.48032 1.26209 0.826756 2.31243 0.476441ZM4.72114 2.93917C4.44601 1.94512 3.53186 1.47525 2.73431 1.74127C2.03324 1.9751 1.79008 2.32268 1.70635 2.66706C1.60768 3.07289 1.69348 3.62955 1.9705 4.30078C2.52015 5.63258 3.66007 7.03043 4.31412 7.68497C4.95234 8.32366 6.34871 9.46929 7.68434 10.0245C8.3576 10.3044 8.91699 10.3924 9.32529 10.2938C9.67156 10.2102 10.0223 9.96559 10.2584 9.25667C10.5246 8.45724 10.054 7.54244 9.06154 7.26735C8.32295 7.06263 7.56359 7.29982 7.11166 7.78382C6.81983 8.09636 6.26354 8.27454 5.79024 7.94417C5.45723 7.71172 5.14096 7.44756 4.84545 7.15183C4.54947 6.85563 4.28521 6.53861 4.05272 6.20485C3.72444 5.73357 3.89961 5.17945 4.20989 4.88693C4.6903 4.43401 4.92515 3.6763 4.72114 2.93917Z" fill="#40C351"/>
</svg>
