<svg width="18" height="17" viewBox="0 0 18 17" fill="none" xmlns="http://www.w3.org/2000/svg">
<path d="M9.15203 8.2982C11.036 8.2982 12.5633 6.7709 12.5633 4.88689C12.5633 3.00288 11.036 1.47559 9.15203 1.47559C7.26802 1.47559 5.74072 3.00288 5.74072 4.88689C5.74072 6.7709 7.26802 8.2982 9.15203 8.2982Z" stroke="#5D70D8" stroke-width="1.22807" stroke-linecap="round" stroke-linejoin="round"/>
<path d="M14.0712 10.8495L11.656 13.2647C11.5604 13.3602 11.4718 13.5376 11.4513 13.6672L11.3217 14.5882C11.2739 14.9225 11.5059 15.1545 11.8402 15.1068L12.7612 14.9771C12.8909 14.9567 13.0751 14.868 13.1638 14.7725L15.579 12.3573C15.9951 11.9411 16.193 11.4567 15.579 10.8426C14.9718 10.2354 14.4874 10.4333 14.0712 10.8495Z" stroke="#5D70D8" stroke-width="1.02339" stroke-miterlimit="10" stroke-linecap="round" stroke-linejoin="round"/>
<path d="M13.7231 11.1973C13.9278 11.9341 14.5009 12.5072 15.2377 12.7119" stroke="#5D70D8" stroke-width="1.02339" stroke-miterlimit="10" stroke-linecap="round" stroke-linejoin="round"/>
<path d="M3.2915 15.1206C3.2915 12.4802 5.91823 10.3447 9.15215 10.3447C9.8617 10.3447 10.5439 10.4471 11.1784 10.6381" stroke="#5D70D8" stroke-width="1.22807" stroke-linecap="round" stroke-linejoin="round"/>
</svg>
