<svg width="38" height="38" viewBox="0 0 28 28" fill="#7c7e86" xmlns="http://www.w3.org/2000/svg">
<g filter="url(#filter0_b_124_2558)">
<rect width="28" height="28" rx="14" fill="#7c7e86" fill-opacity="0.4"/>
<g clip-path="url(#clip0_124_2558)">
<path d="M17 14.5H14.5V17C14.5 17.275 14.275 17.5 14 17.5C13.725 17.5 13.5 17.275 13.5 17V14.5H11C10.725 14.5 10.5 14.275 10.5 14C10.5 13.725 10.725 13.5 11 13.5H13.5V11C13.5 10.725 13.725 10.5 14 10.5C14.275 10.5 14.5 10.725 14.5 11V13.5H17C17.275 13.5 17.5 13.725 17.5 14C17.5 14.275 17.275 14.5 17 14.5Z" fill="white"/>
</g>
</g>
<defs>
<filter id="filter0_b_124_2558" x="-34" y="-34" width="96" height="96" filterUnits="userSpaceOnUse" color-interpolation-filters="sRGB">
<feFlood flood-opacity="0" result="BackgroundImageFix"/>
<feGaussianBlur in="BackgroundImageFix" stdDeviation="17"/>
<feComposite in2="SourceAlpha" operator="in" result="effect1_backgroundBlur_124_2558"/>
<feBlend mode="normal" in="SourceGraphic" in2="effect1_backgroundBlur_124_2558" result="shape"/>
</filter>
<clipPath id="clip0_124_2558">
<rect width="12" height="12" fill="white" transform="translate(8 8)"/>
</clipPath>
</defs>
</svg>
