<svg width="32" height="32" viewBox="0 0 32 32" fill="none" xmlns="http://www.w3.org/2000/svg">
<path d="M23.6133 14.8802C23.6286 13.8084 23.914 12.7578 24.443 11.8255C24.9721 10.8933 25.7277 10.1096 26.64 9.54682C26.0569 8.72233 25.2917 8.04326 24.4038 7.5623C23.5159 7.08134 22.5291 6.81142 21.52 6.77348C19.3333 6.54682 17.2666 8.10682 16.1866 8.10682C15.1066 8.10682 13.3066 6.77348 11.5333 6.77348C10.3418 6.81665 9.182 7.1687 8.16756 7.79513C7.15312 8.42156 6.31888 9.30086 5.74664 10.3468C3.27997 14.6402 5.10664 21.0135 7.51997 24.4668C8.6933 26.1602 10.0933 28.0668 12 28.0002C13.9066 27.9335 14.4533 26.8535 16.6 26.8535C18.7466 26.8535 19.3466 28.0001 21.2133 27.9735C23.08 27.9468 24.3333 26.2402 25.5066 24.5335C26.3487 23.305 27.0005 21.9565 27.44 20.5335C26.3189 20.0691 25.3587 19.2858 24.6785 18.2809C23.9983 17.276 23.6279 16.0936 23.6133 14.8802Z" fill="white"/>
<path d="M20.0934 4.46667C20.6204 3.85613 21.0204 3.14664 21.2699 2.3797C21.5195 1.61275 21.6136 0.803748 21.5468 0C19.9518 0.150362 18.4762 0.909651 17.4268 2.12C16.9135 2.71164 16.5231 3.39943 16.2782 4.14337C16.0333 4.8873 15.9387 5.67252 16.0001 6.45333C16.7888 6.45707 17.568 6.27993 18.2776 5.93553C18.9872 5.59113 19.6084 5.08864 20.0934 4.46667Z" fill="white"/>
</svg>
