<svg width="17" height="16" viewBox="0 0 17 16" fill="none" xmlns="http://www.w3.org/2000/svg">
<path fill-rule="evenodd" clip-rule="evenodd" d="M1.99976 4.66683C1.99976 2.82588 3.49214 1.3335 5.33309 1.3335H11.9998C13.8407 1.3335 15.3331 2.82588 15.3331 4.66683V11.3335C15.3331 13.1744 13.8407 14.6668 11.9998 14.6668H5.33309C3.49214 14.6668 1.99976 13.1744 1.99976 11.3335V4.66683ZM5.33309 2.66683C4.22852 2.66683 3.33309 3.56226 3.33309 4.66683V11.3335C3.33309 12.4381 4.22852 13.3335 5.33309 13.3335H11.9998C13.1043 13.3335 13.9998 12.4381 13.9998 11.3335V4.66683C13.9998 3.56226 13.1043 2.66683 11.9998 2.66683H5.33309Z" fill="#1c6758"/>
<path fill-rule="evenodd" clip-rule="evenodd" d="M5.99992 8.6665C6.36811 8.6665 6.66659 8.96498 6.66659 9.33317V10.6665C6.66659 11.0347 6.36811 11.3332 5.99992 11.3332C5.63173 11.3332 5.33325 11.0347 5.33325 10.6665L5.33325 9.33317C5.33325 8.96498 5.63173 8.6665 5.99992 8.6665Z" fill="#1c6758"/>
<path fill-rule="evenodd" clip-rule="evenodd" d="M11.3332 4.6665C11.7014 4.6665 11.9998 4.96498 11.9998 5.33317L11.9998 10.6665C11.9998 11.0347 11.7014 11.3332 11.3332 11.3332C10.965 11.3332 10.6665 11.0347 10.6665 10.6665L10.6665 5.33317C10.6665 4.96498 10.965 4.6665 11.3332 4.6665Z" fill="#1c6758"/>
<path fill-rule="evenodd" clip-rule="evenodd" d="M8.66642 6.6665C9.03461 6.6665 9.33309 6.96498 9.33309 7.33317L9.33309 10.6665C9.33309 11.0347 9.03461 11.3332 8.66642 11.3332C8.29823 11.3332 7.99976 11.0347 7.99976 10.6665L7.99976 7.33317C7.99976 6.96498 8.29823 6.6665 8.66642 6.6665Z" fill="#1c6758"/>
</svg>
