<svg width="48" height="48" viewBox="0 0 48 48" fill="none" xmlns="http://www.w3.org/2000/svg">
<rect width="48" height="48" rx="8" fill="#F4F6FF"/>
<path fill-rule="evenodd" clip-rule="evenodd" d="M14.4992 22.5657C14.155 20.1559 16.0248 18 18.459 18H29.541C31.9752 18 33.845 20.1559 33.5008 22.5657L32.4806 29.7071C32.1287 32.1704 30.0191 34 27.5308 34H20.4692C17.9809 34 15.8713 32.1704 15.5194 29.7071L14.4992 22.5657ZM18.459 20C17.2419 20 16.307 21.078 16.4791 22.2828L17.4993 29.4243C17.7104 30.9022 18.9762 32 20.4692 32H27.5308C29.0238 32 30.2895 30.9022 30.5007 29.4243L31.5209 22.2828C31.693 21.078 30.7581 20 29.541 20H18.459Z" fill="#2A47AA"/>
<path fill-rule="evenodd" clip-rule="evenodd" d="M19.0001 16.7636C19.8471 15.0696 21.5783 14 23.4721 14H24.5279C26.4218 14 28.1531 15.07 29 16.764L29.8944 18.5528C30.1414 19.0468 29.9412 19.6474 29.4472 19.8944C28.9532 20.1414 28.3526 19.9412 28.1056 19.4472L27.2112 17.6584C26.703 16.642 25.6642 16 24.5279 16H23.4721C22.3357 16 21.2971 16.6418 20.789 17.6581L19.8944 19.4472C19.6474 19.9412 19.0467 20.1414 18.5528 19.8944C18.0588 19.6474 17.8586 19.0468 18.1055 18.5528L19.0001 16.7636Z" fill="#2A47AA"/>
</svg>
