<svg width="48" height="48" viewBox="0 0 48 48" fill="none" xmlns="http://www.w3.org/2000/svg">
<rect width="48" height="48" rx="8" fill="#F4F6FF"/>
<path fill-rule="evenodd" clip-rule="evenodd" d="M18.3271 16.8564C18.8957 15.1506 20.4921 14 22.2902 14H25.7098C27.5079 14 29.1043 15.1506 29.6729 16.8564C29.7365 17.0474 29.8933 17.1926 30.0886 17.2414L30.8938 17.4427C32.7194 17.8991 34 19.5393 34 21.421V29C34 31.7614 31.7614 34 29 34H19C16.2386 34 14 31.7614 14 29V21.421C14 19.5393 15.2806 17.8991 17.1062 17.4427L17.9114 17.2414C18.1067 17.1926 18.2635 17.0474 18.3271 16.8564ZM22.2902 16C21.3529 16 20.5208 16.5997 20.2245 17.4889C19.9446 18.3285 19.2551 18.967 18.3965 19.1817L17.5912 19.383C16.6561 19.6168 16 20.457 16 21.421V29C16 30.6569 17.3431 32 19 32H29C30.6569 32 32 30.6569 32 29V21.421C32 20.457 31.3439 19.6168 30.4088 19.383L29.6035 19.1817C28.7449 18.967 28.0554 18.3285 27.7755 17.4889C27.4791 16.5997 26.6471 16 25.7098 16H22.2902Z" fill="#2A47AA"/>
<path fill-rule="evenodd" clip-rule="evenodd" d="M24 23C22.8954 23 22 23.8954 22 25C22 26.1046 22.8954 27 24 27C25.1046 27 26 26.1046 26 25C26 23.8954 25.1046 23 24 23ZM20 25C20 22.7909 21.7909 21 24 21C26.2091 21 28 22.7909 28 25C28 27.2091 26.2091 29 24 29C21.7909 29 20 27.2091 20 25Z" fill="#2A47AA"/>
</svg>
