<svg width="48" height="48" viewBox="0 0 48 48" fill="none" xmlns="http://www.w3.org/2000/svg">
<rect width="48" height="48" rx="8" fill="#F4F6FF"/>
<path d="M27 16C22.58 16 19 19.58 19 24C19 28.42 22.58 32 27 32C31.42 32 35 28.42 35 24C35 19.58 31.42 16 27 16ZM27 30C23.69 30 21 27.31 21 24C21 20.69 23.69 18 27 18C30.31 18 33 20.69 33 24C33 27.31 30.31 30 27 30ZM15 24C15 21.61 16.4 19.54 18.43 18.58C18.77 18.42 19 18.11 19 17.74V17.55C19 16.87 18.29 16.44 17.68 16.73C14.92 17.99 13 20.77 13 24C13 27.23 14.92 30.01 17.68 31.27C18.29 31.55 19 31.13 19 30.45V30.27C19 29.9 18.77 29.58 18.43 29.42C16.4 28.46 15 26.39 15 24Z" fill="#2A47AA"/>
</svg>
