<svg width="9" height="11" viewBox="0 0 9 11" fill="none" xmlns="http://www.w3.org/2000/svg">
<path d="M3.58398 0.916992L3.12565 1.37533H0.833984V2.29199H1.29232V9.16699C1.29232 9.40634 1.38001 9.65035 1.55282 9.82316C1.72562 9.99597 1.96963 10.0837 2.20898 10.0837H6.79232C7.03167 10.0837 7.27568 9.99597 7.44849 9.82316C7.62129 9.65035 7.70899 9.40634 7.70899 9.16699V2.29199H8.16732V1.37533H5.87565L5.41732 0.916992H3.58398ZM2.20898 2.29199H6.79232V9.16699H2.20898V2.29199ZM3.12565 3.20866V8.25032H4.04232V3.20866H3.12565ZM4.95899 3.20866V8.25032H5.87565V3.20866H4.95899Z" fill="#E00000"/>
</svg>
