<svg width="48" height="48" viewBox="0 0 48 48" fill="none" xmlns="http://www.w3.org/2000/svg">
<rect width="48" height="48" rx="8" fill="#F4F6FF"/>
<path fill-rule="evenodd" clip-rule="evenodd" d="M14 20C14 17.2386 16.2386 15 19 15H29C31.7614 15 34 17.2386 34 20V29C34 31.7614 31.7614 34 29 34H19C16.2386 34 14 31.7614 14 29V20ZM19 17C17.3431 17 16 18.3431 16 20V29C16 30.6569 17.3431 32 19 32H29C30.6569 32 32 30.6569 32 29V20C32 18.3431 30.6569 17 29 17H19Z" fill="#2A47AA"/>
<path fill-rule="evenodd" clip-rule="evenodd" d="M20 14C20.5523 14 21 14.4477 21 15V18C21 18.5523 20.5523 19 20 19C19.4477 19 19 18.5523 19 18V15C19 14.4477 19.4477 14 20 14Z" fill="#2A47AA"/>
<path fill-rule="evenodd" clip-rule="evenodd" d="M18 22C18 21.4477 18.4477 21 19 21H29C29.5523 21 30 21.4477 30 22C30 22.5523 29.5523 23 29 23H19C18.4477 23 18 22.5523 18 22Z" fill="#2A47AA"/>
<path fill-rule="evenodd" clip-rule="evenodd" d="M27 29C27 28.4477 27.4477 28 28 28L29 28C29.5523 28 30 28.4477 30 29C30 29.5523 29.5523 30 29 30H28C27.4477 30 27 29.5523 27 29Z" fill="#2A47AA"/>
<path fill-rule="evenodd" clip-rule="evenodd" d="M28 14C28.5523 14 29 14.4477 29 15V18C29 18.5523 28.5523 19 28 19C27.4477 19 27 18.5523 27 18V15C27 14.4477 27.4477 14 28 14Z" fill="#2A47AA"/>
</svg>
