<svg width="48" height="48" viewBox="0 0 48 48" fill="none" xmlns="http://www.w3.org/2000/svg">
<rect width="48" height="48" rx="8" fill="#F4F6FF"/>
<path fill-rule="evenodd" clip-rule="evenodd" d="M14 24C14 18.4771 18.4771 14 24 14C29.5228 14 34 18.4771 34 24C34 29.5228 29.5228 34 24 34C18.4771 34 14 29.5228 14 24ZM24 16C19.5817 16 16 19.5817 16 24C16 28.4183 19.5817 32 24 32C28.4183 32 32 28.4183 32 24C32 19.5817 28.4183 16 24 16Z" fill="#2A47AA"/>
<path fill-rule="evenodd" clip-rule="evenodd" d="M26.2893 20.11C27.3049 19.6548 28.3452 20.6951 27.89 21.7106L25.4608 27.1295C24.9578 28.2517 23.3825 28.2998 22.8119 27.2105L22.2177 26.0761C22.1519 25.9505 22.0495 25.8481 21.9239 25.7823L20.7895 25.1881C19.7002 24.6175 19.7483 23.0422 20.8705 22.5392L26.2893 20.11ZM26.0135 21.9865L21.7625 23.8921L22.6661 24.3655C23.0799 24.5822 23.4178 24.9201 23.6345 25.3339L24.1079 26.2375L26.0135 21.9865Z" fill="#2A47AA"/>
</svg>
