<svg width="32" height="32" viewBox="0 0 32 32" fill="none" xmlns="http://www.w3.org/2000/svg">
<path fill-rule="evenodd" clip-rule="evenodd" d="M0.0531987 19.2218H6.363C6.363 14.0958 5.2962 9.27181 10.1287 6.95999C11.9253 6.09974 15.2576 6.37383 17.4775 6.37383C20.4398 6.37383 22.0084 6.60222 23.6809 8.20597C25.2494 9.70827 25.589 11.4415 25.589 14.3115C25.589 16.6867 25.8906 19.8714 25.0163 21.8634C24.6105 22.7549 24.0058 23.5413 23.2489 24.162C22.4919 24.7828 21.6029 25.2214 20.6501 25.444C18.3999 25.9516 15.3286 25.6445 12.7945 25.6445L12.7666 31.882C16.4537 31.882 21.8893 31.9607 24.3549 30.8669C27.1988 29.6153 29.481 27.3562 30.7636 24.5229C32.284 21.1022 32.0078 16.9862 31.9292 12.931C31.942 11.1075 31.5698 9.3019 30.8371 7.63248C29.8427 5.38564 28.2206 3.47481 26.1662 2.13034C24.1119 0.785873 21.713 0.0651755 19.2589 0.0551449C15.3007 0.047532 10.9472 -0.35595 7.6022 1.13871C4.77279 2.40222 2.49742 4.65102 1.1986 7.46752C-0.375058 10.802 0.0531987 15.225 0.0531987 19.2218Z" fill="white"/>
<path fill-rule="evenodd" clip-rule="evenodd" d="M0.0532227 31.9998H6.36305L6.3757 26.0517L6.28195 25.6812H0.10137L0.0532227 26.0542V31.9998Z" fill="#58BCF8"/>
<path fill-rule="evenodd" clip-rule="evenodd" d="M23.394 11.2291C23.4244 11.1731 23.4392 11.1099 23.437 11.0462C23.4349 10.9825 23.4157 10.9206 23.3816 10.8667C23.3475 10.8129 23.2997 10.7692 23.2431 10.7401C23.1864 10.711 23.1231 10.6976 23.0595 10.7013C22.8771 10.7165 21.648 11.6656 21.4631 11.8102C21.121 12.064 20.7865 12.3177 20.4266 12.5715L14.1903 17.1417C14.099 17.2218 13.9838 17.2692 13.8627 17.2765C13.7416 17.2839 13.6215 17.2507 13.5213 17.1823L9.00307 14.5052C8.94642 14.4788 8.88392 14.4677 8.82172 14.4731C8.75952 14.4785 8.69977 14.5001 8.64852 14.5358C8.59722 14.5715 8.55622 14.62 8.52947 14.6765C8.50277 14.733 8.49132 14.7956 8.49622 14.8579C8.49622 15.0254 8.74967 15.2867 8.84592 15.4136C10.2777 17.2305 11.7094 19.1972 13.1387 21.0344C13.2755 21.2121 13.3921 21.3796 13.5264 21.5419C13.98 22.0825 14.317 21.6866 14.6059 21.344C14.687 21.2476 14.7427 21.207 14.8162 21.108C14.8897 21.0091 14.9404 20.9685 15.0265 20.8543L17.1273 18.4309C17.2616 18.2558 17.401 18.1238 17.5479 17.9538L20.8929 14.1169C21.1792 13.7845 21.4428 13.4952 21.7317 13.1602L23.394 11.2291Z" fill="#58BCF8"/>
</svg>
