<svg width="112" height="18" viewBox="0 0 112 18" fill="none" xmlns="http://www.w3.org/2000/svg">
<path d="M108.735 11.4968C108.755 10.8079 108.595 10.1254 108.271 9.51345C107.985 8.98325 107.552 8.5429 107.022 8.2429C106.508 7.95155 105.925 7.79915 105.331 7.8013C104.746 7.7961 104.171 7.9451 103.665 8.2326C103.141 8.5325 102.713 8.9676 102.425 9.49025C102.096 10.0923 101.933 10.7677 101.951 11.4503C101.934 12.141 102.098 12.8244 102.425 13.4362C102.715 13.9689 103.147 14.4149 103.675 14.7274C104.174 15.0241 104.747 15.1804 105.331 15.1793C105.925 15.1815 106.508 15.0291 107.022 14.7377C107.552 14.4378 107.985 13.9974 108.271 13.4672C108.593 12.8592 108.753 12.1814 108.735 11.4968ZM98.6386 11.4503C98.6157 10.2797 98.8817 9.12085 99.4137 8.07245C99.8813 7.14075 100.61 6.3584 101.514 5.8166C102.419 5.2748 103.461 4.99585 104.522 5.0123C105.344 5.0114 106.155 5.1933 106.895 5.54425C107.611 5.86665 108.235 6.3572 108.712 6.97235V0.9966H112V17.7824H108.712V15.9231C108.293 16.5595 107.71 17.0762 107.022 17.4209C106.241 17.8107 105.374 18.005 104.498 17.9864C103.447 17.9968 102.414 17.7118 101.523 17.1652C100.618 16.603 99.8875 15.8068 99.4137 14.8643C98.8801 13.8034 98.6146 12.6326 98.6386 11.4503ZM93.1195 10.3295C93.1256 9.9577 93.0475 9.58915 92.8913 9.25025C92.735 8.9114 92.5038 8.6106 92.2148 8.36945C91.6149 7.8719 90.849 7.6089 90.0633 7.6309C89.3194 7.6104 88.5949 7.8659 88.0353 8.3462C87.4615 8.8643 87.1005 9.56945 87.0198 10.3295H93.1195ZM96.4764 11.2386C96.479 11.6483 96.4483 12.0577 96.384 12.4626H87.004C87.0367 13.2689 87.3854 14.0319 87.9771 14.5931C88.551 15.1099 89.3076 15.3877 90.0868 15.3679C91.2927 15.3679 92.1499 14.8617 92.6579 13.8494H96.1543C95.7938 15.0432 95.0458 16.0894 94.0237 16.8295C92.9045 17.6302 91.5434 18.0411 90.1582 17.9968C88.9972 18.016 87.8515 17.7393 86.833 17.1936C85.8619 16.6642 85.0664 15.8727 84.5411 14.9134C83.9764 13.8665 83.6935 12.696 83.7186 11.5123C83.6925 10.3223 83.9718 9.1448 84.5309 8.08795C85.045 7.1318 85.8333 6.3437 86.7988 5.8206C87.824 5.3035 88.9594 5.0318 90.1128 5.02775C91.2662 5.0237 92.4042 5.28745 93.433 5.79735C94.3841 6.29735 95.1648 7.0585 95.68 7.98725C96.2232 8.9824 96.4974 10.0973 96.4764 11.2256V11.2386ZM79.9215 3.8321C79.6632 3.84185 79.4053 3.8012 79.1628 3.71255C78.9208 3.6239 78.6992 3.48895 78.5103 3.31565C78.3286 3.1473 78.1846 2.94315 78.0891 2.71665C77.9931 2.4901 77.9472 2.2463 77.9543 2.0012C77.9472 1.75565 77.9931 1.51145 78.0886 1.2845C78.1846 1.05755 78.3286 0.853 78.5103 0.68415C78.6992 0.5113 78.9213 0.37665 79.1633 0.28805C79.4053 0.1994 79.6632 0.1585 79.9215 0.16765C80.4545 0.1474 80.9743 0.3329 81.3689 0.68415C81.5538 0.85135 81.7003 1.0554 81.7978 1.28255C81.8959 1.5097 81.9428 1.75475 81.9362 2.0012C81.9428 2.24725 81.8959 2.49195 81.7983 2.7187C81.7003 2.94545 81.5543 3.14905 81.3689 3.31565C80.9748 3.6681 80.4545 3.85375 79.9215 3.8321ZM74.0644 5.2163H81.5431V17.7773H78.302V7.82455H74.0644V17.7773H70.7764V7.82455H69.3182V5.2163H70.7764V4.58105C70.7764 3.03155 71.216 1.8979 72.0946 1.17995C72.9738 0.46205 74.3018 0.11775 76.079 0.147V2.84045C75.3372 2.82495 74.8159 2.95325 74.5157 3.22525C74.215 3.49725 74.0644 3.9888 74.0644 4.6998V5.2163ZM67.2428 5.2163V17.7773H63.9915V5.2163H67.2428ZM65.6447 3.7185C65.3833 3.72605 65.1229 3.6829 64.8784 3.5916C64.6343 3.50035 64.4107 3.36265 64.2208 3.1865C64.0365 3.0165 63.891 2.8105 63.7934 2.58185C63.6954 2.35315 63.6479 2.10695 63.6541 1.85915C63.6479 1.61135 63.6954 1.36515 63.7934 1.13645C63.891 0.9078 64.0365 0.7018 64.2208 0.5318C64.6129 0.1893 65.1194 0 65.6447 0C66.1701 0 66.6771 0.1893 67.0687 0.5318C67.2535 0.7015 67.399 0.90745 67.497 1.1362C67.5946 1.3649 67.642 1.6113 67.6354 1.85915C67.642 2.107 67.5946 2.35335 67.497 2.5821C67.399 2.81085 67.2535 3.0168 67.0687 3.1865C66.8777 3.36425 66.6526 3.5029 66.4065 3.59425C66.1599 3.6856 65.8975 3.72785 65.634 3.7185H65.6447ZM57.8791 7.16605C58.2835 6.50095 58.8614 5.95305 59.5527 5.57825C60.2445 5.2035 61.0257 5.0153 61.816 5.03295V8.36685H60.9588C59.9392 8.36685 59.1708 8.601 58.6541 9.0693C58.1375 9.53755 57.8791 10.3545 57.8791 11.52V17.7773H54.6355V5.2163H57.8791V7.16605ZM48.9157 10.3295C48.9224 9.95785 48.8453 9.58935 48.689 9.2505C48.5333 8.9116 48.3025 8.6107 48.0141 8.36945C47.4132 7.87195 46.6463 7.60895 45.8595 7.6309C45.1166 7.6108 44.3932 7.86625 43.8341 8.3462C43.2638 8.86555 42.9054 9.57055 42.8268 10.3295H48.9157ZM52.2752 11.2386C52.2783 11.6483 52.2471 12.0577 52.1828 12.4626H42.8033C42.836 13.2646 43.1837 14.0232 43.7739 14.5802C44.3472 15.097 45.1039 15.3748 45.8835 15.3549C47.0874 15.3549 47.9446 14.8488 48.4542 13.8365H51.9485C51.588 15.0303 50.84 16.0765 49.8179 16.8166C48.6972 17.6177 47.3355 18.0286 45.9494 17.9839C44.7894 18.0028 43.6442 17.726 42.6267 17.1807C41.6591 16.649 40.8673 15.8568 40.3455 14.8979C39.7808 13.851 39.4979 12.6805 39.523 11.4968C39.4969 10.3068 39.7762 9.12945 40.3353 8.07245C40.8494 7.1163 41.6372 6.3282 42.6026 5.8051C43.6284 5.288 44.7639 5.0163 45.9172 5.01225C47.0706 5.00825 48.2086 5.27195 49.2374 5.78185C50.1885 6.28185 50.9692 7.043 51.4844 7.97175C52.0286 8.972 52.3007 10.0925 52.2752 11.2256V11.2386ZM32.2684 5.0407C33.1736 5.0247 34.0671 5.2401 34.8605 5.66565C35.6238 6.08655 36.2411 6.7215 36.6327 7.48885C37.0794 8.39695 37.2974 9.39675 37.2683 10.4044V17.7773H34.0171V10.846C34.0171 9.8492 33.7531 9.0822 33.2523 8.54505C32.9842 8.2726 32.6595 8.0597 32.3001 7.9207C31.9406 7.7817 31.5546 7.71985 31.1692 7.73935C30.7791 7.7211 30.3901 7.78345 30.0265 7.92225C29.663 8.0611 29.3337 8.2733 29.0595 8.54505C28.5423 9.0822 28.284 9.8492 28.284 10.846V17.7773H25.0511V0.99145H28.2922V6.7761C28.7267 6.21315 29.3015 5.7686 29.9612 5.4849C30.6882 5.1735 31.4755 5.01935 32.2684 5.03295V5.0407ZM23.2264 0.97855L18.422 17.7773H14.601L11.5657 5.54425L8.40126 17.7773L4.60423 17.8005L0 0.9966H3.47283L6.56631 14.2419L9.85432 0.9863H13.4645L16.5682 14.1722L19.7326 0.97855H23.2264Z" fill="white"/>
</svg>
