<svg width="5" height="16" viewBox="0 0 5 16" fill="none" xmlns="http://www.w3.org/2000/svg">
<path d="M2.50016 4C3.55433 4 4.41683 3.1 4.41683 2C4.41683 0.9 3.55433 0 2.50016 0C1.446 0 0.583496 0.9 0.583496 2C0.583496 3.1 1.446 4 2.50016 4ZM2.50016 6C1.446 6 0.583496 6.9 0.583496 8C0.583496 9.1 1.446 10 2.50016 10C3.55433 10 4.41683 9.1 4.41683 8C4.41683 6.9 3.55433 6 2.50016 6ZM2.50016 12C1.446 12 0.583496 12.9 0.583496 14C0.583496 15.1 1.446 16 2.50016 16C3.55433 16 4.41683 15.1 4.41683 14C4.41683 12.9 3.55433 12 2.50016 12Z" fill="#9E9E9E"/>
</svg>
