<svg width="24" height="24" viewBox="0 0 24 24" fill="none" xmlns="http://www.w3.org/2000/svg">
<path d="M7.959 21.0029C9.66001 21.0147 11.3464 20.6885 12.9203 20.0433C14.4943 19.398 15.9243 18.4465 17.1275 17.2441C18.3307 16.0416 19.2831 14.6121 19.9293 13.0386C20.5755 11.4651 20.9028 9.7789 20.892 8.07788C20.892 7.88488 20.892 7.68688 20.884 7.49388C21.7735 6.84929 22.5411 6.05151 23.151 5.13788C22.3191 5.50456 21.4376 5.74617 20.535 5.85488C21.4843 5.28598 22.1949 4.392 22.535 3.33888C21.6423 3.86861 20.665 4.24071 19.646 4.43888C18.961 3.71029 18.055 3.22774 17.0681 3.06586C16.0813 2.90398 15.0686 3.0718 14.1867 3.54337C13.3048 4.01493 12.6029 4.76395 12.1896 5.67456C11.7762 6.58517 11.6744 7.60661 11.9 8.58088C10.0935 8.48963 8.32634 8.01981 6.71304 7.20187C5.09974 6.38394 3.67631 5.23615 2.535 3.83288C1.95424 4.83419 1.77668 6.01912 2.03841 7.14668C2.30015 8.27425 2.98153 9.25979 3.944 9.90288C3.22337 9.87771 2.51875 9.68349 1.887 9.33588V9.40288C1.88952 10.451 2.25365 11.4661 2.91791 12.2769C3.58217 13.0876 4.50586 13.6443 5.533 13.8529C5.14215 13.9605 4.73839 14.014 4.333 14.0119C4.04746 14.0128 3.76249 13.9863 3.482 13.9329C3.77254 14.8357 4.33822 15.625 5.09981 16.1902C5.8614 16.7555 6.78073 17.0683 7.729 17.0849C6.11828 18.3505 4.12843 19.037 2.08 19.0339C1.71907 19.0355 1.35838 19.0148 1 18.9719C3.07861 20.2985 5.49315 21.0031 7.959 21.0029Z" fill="white"/>
</svg>
