<svg width="107" height="47" viewBox="0 0 107 47" fill="none" xmlns="http://www.w3.org/2000/svg">
<path d="M5.84375 46.5312C4.76042 46.1979 3.8125 45.0729 3 43.1562C2.1875 41.2188 1.55208 38.6146 1.09375 35.3438C0.864583 33.5938 0.697917 31.9375 0.59375 30.375C0.489583 28.7917 0.4375 26.9479 0.4375 24.8438C0.4375 23.1354 0.46875 21.625 0.53125 20.3125C0.572917 19 0.677083 17.4271 0.84375 15.5938C1.09375 12.6354 1.4375 9.875 1.875 7.3125C2.29167 4.72917 2.66667 3.14583 3 2.5625C3.1875 2.3125 3.35417 2.1875 3.5 2.1875C3.66667 2.16667 3.76042 2.15625 3.78125 2.15625C4.05208 2.15625 4.28125 2.26042 4.46875 2.46875C4.53125 2.55208 4.57292 2.625 4.59375 2.6875C4.63542 2.75 4.65625 2.84375 4.65625 2.96875C4.67708 3.09375 4.6875 3.26042 4.6875 3.46875C4.6875 3.86458 4.65625 4.15625 4.59375 4.34375C4.55208 4.51042 4.44792 4.65625 4.28125 4.78125C4.21875 4.82292 4.16667 4.90625 4.125 5.03125C4.08333 5.13542 4.03125 5.32292 3.96875 5.59375C3.90625 5.86458 3.83333 6.25 3.75 6.75C3.6875 7.25 3.59375 7.91667 3.46875 8.75C2.59375 14.8125 2.15625 20.3646 2.15625 25.4062C2.15625 30.1354 2.54167 34.4062 3.3125 38.2188C3.66667 39.9688 4.09375 41.4375 4.59375 42.625C5.11458 43.8125 5.625 44.5521 6.125 44.8438C6.25 44.9062 6.33333 44.9375 6.375 44.9375C6.4375 44.9375 6.47917 44.9375 6.5 44.9375C6.5625 44.9375 6.63542 44.9167 6.71875 44.875C7.88542 44.3333 9.125 41.4062 10.4375 36.0938C11.5833 31.4062 12.3229 27.5625 12.6562 24.5625C12.6979 24.0417 12.7396 23.6458 12.7812 23.375C12.8229 23.0833 12.875 22.875 12.9375 22.75C13 22.6042 13.0625 22.5 13.125 22.4375C13.2917 22.3125 13.4896 22.2604 13.7187 22.2812C13.9687 22.2812 14.1667 22.3542 14.3125 22.5C14.3958 22.5625 14.4687 22.6771 14.5312 22.8438C14.5937 23.0104 14.6458 23.2917 14.6875 23.6875C14.7292 24.0833 14.7812 24.6667 14.8437 25.4375C15.0521 27.875 15.3646 30.125 15.7812 32.1875C16.1979 34.25 16.6458 35.8125 17.125 36.875C17.2292 37.0417 17.3125 37.1875 17.375 37.3125C17.4583 37.4167 17.5104 37.4688 17.5312 37.4688C17.6146 37.3854 17.7292 37.0833 17.875 36.5625C18.0208 36.0417 18.1458 35.4688 18.25 34.8438C18.5417 33.3646 18.8646 30.75 19.2188 27C19.8438 20.8125 20.6875 13.9583 21.75 6.4375C21.9167 5.16667 22.0521 4.15625 22.1562 3.40625C22.2812 2.63542 22.3854 2.0625 22.4688 1.6875C22.5521 1.29167 22.6354 1.02083 22.7188 0.875C22.8021 0.729167 22.8958 0.645833 23 0.625C23.0625 0.604167 23.125 0.59375 23.1875 0.59375C23.3125 0.59375 23.4271 0.635417 23.5312 0.71875C23.6562 0.802083 23.7188 0.927083 23.7188 1.09375V1.21875C23.5312 2.17708 23.3542 3.27083 23.1875 4.5C23.0208 5.70833 22.8021 7.46875 22.5312 9.78125C22.3021 11.8229 22.0312 14.3333 21.7188 17.3125C21.4062 20.2917 21.1771 22.6042 21.0312 24.25C20.5938 29.3333 20.1979 32.9271 19.8438 35.0312C19.4896 37.1354 19.0729 38.4062 18.5938 38.8438C18.2396 39.1771 17.8854 39.3438 17.5312 39.3438C17.1562 39.3438 16.7708 39.1458 16.375 38.75C15.8333 38.1875 15.3437 37.2188 14.9062 35.8438C14.4896 34.4479 14.0521 32.3958 13.5937 29.6875C13.5937 29.6042 13.5833 29.5417 13.5625 29.5L13.5312 29.4375C13.5104 29.4583 13.4583 29.6667 13.375 30.0625C13.2917 30.4375 13.1979 30.8958 13.0937 31.4375C12.2187 35.7292 11.4167 38.9792 10.6875 41.1875C9.95833 43.3958 9.17708 44.9062 8.34375 45.7188C7.73958 46.3021 7.09375 46.5938 6.40625 46.5938C6.21875 46.5938 6.03125 46.5729 5.84375 46.5312ZM36.5625 36.4062C36.4167 36.3646 36.2708 36.2604 36.125 36.0938C35.9792 35.9062 35.8646 35.6979 35.7812 35.4688C35.2188 33.9688 34.7917 31.2292 34.5 27.25C34.3333 24.9167 34.0938 23.75 33.7812 23.75C33.5521 23.75 33.2292 23.9688 32.8125 24.4062C32.3958 24.8229 31.9479 25.3854 31.4688 26.0938C30.3854 27.7396 29.5104 29.6146 28.8438 31.7188C28.7604 31.9896 28.6667 32.2396 28.5625 32.4688C28.4792 32.6771 28.4062 32.8125 28.3438 32.875C28.1979 33.0417 28.0521 33.1458 27.9062 33.1875C27.7812 33.2083 27.6979 33.2188 27.6562 33.2188C27.5312 33.2188 27.4062 33.1771 27.2812 33.0938C27.1771 33.0312 27.0938 32.9479 27.0312 32.8438C26.9688 32.7396 26.9271 32.5417 26.9062 32.25C26.8854 31.9583 26.875 31.5104 26.875 30.9062C26.875 30.2812 26.8854 29.4375 26.9062 28.375C27.0521 20.9167 27.4688 15.2604 28.1562 11.4062C28.8646 7.53125 29.8646 5.36458 31.1562 4.90625C31.3229 4.84375 31.4479 4.8125 31.5312 4.8125C31.6354 4.79167 31.7604 4.80208 31.9062 4.84375C32.6562 5.03125 33.0938 5.77083 33.2188 7.0625C33.2396 7.35417 33.25 7.65625 33.25 7.96875C33.25 9.03125 33.1042 10.3021 32.8125 11.7812C32.4375 13.7396 31.9167 15.6875 31.25 17.625C30.5833 19.5625 29.875 21.1146 29.125 22.2812L28.8438 22.7188L28.75 25.1875C28.7292 25.875 28.7083 26.4583 28.6875 26.9375C28.6875 27.3958 28.6875 27.6458 28.6875 27.6875C28.7083 27.6667 28.7812 27.5625 28.9062 27.375C29.0312 27.1667 29.1771 26.8958 29.3438 26.5625C31.1146 23.5625 32.625 22.0625 33.875 22.0625C34.625 22.0625 35.1771 22.4792 35.5312 23.3125C35.8854 24.125 36.0938 25.4896 36.1562 27.4062C36.3854 32.1771 36.7708 34.7604 37.3125 35.1562C37.5417 35.3021 37.6562 35.4792 37.6562 35.6875V35.75C37.6354 35.9792 37.5417 36.1562 37.375 36.2812C37.2083 36.4062 37.0521 36.4688 36.9062 36.4688C36.8021 36.4688 36.6875 36.4479 36.5625 36.4062ZM29.5938 17.9688C30.5312 15.5938 31.2083 13.1146 31.625 10.5312C31.6875 10.0104 31.7292 9.52083 31.75 9.0625C31.7708 8.60417 31.7812 8.25 31.7812 8C31.7812 7.72917 31.7708 7.48958 31.75 7.28125C31.7083 6.84375 31.6458 6.625 31.5625 6.625C31.4792 6.625 31.3542 6.79167 31.1875 7.125C31.0208 7.45833 30.8646 7.84375 30.7188 8.28125C30.1354 9.96875 29.6667 12.5833 29.3125 16.125C29.1667 17.5417 29.0938 18.4479 29.0938 18.8438C29.0938 19.0104 29.1042 19.0938 29.125 19.0938C29.1458 19.0938 29.1979 18.9896 29.2812 18.7812C29.3854 18.5521 29.4896 18.2812 29.5938 17.9688ZM43.1875 33.375C42.6875 33.1875 42.2708 32.9062 41.9375 32.5312C41.6042 32.1562 41.3229 31.7292 41.0938 31.25C40.4479 29.875 40.1042 28.6979 40.0625 27.7188C40.0208 26.7188 40 26.0938 40 25.8438C40 24.4062 40.1979 23.0729 40.5938 21.8438C40.9688 20.6771 41.4271 19.8125 41.9688 19.25C42.6354 18.6042 43.1458 18.2812 43.5 18.2812C43.875 18.2812 44.0833 18.2812 44.125 18.2812C44.7917 18.2812 45.3438 18.5104 45.7812 18.9688C46.2188 19.4062 46.4375 20 46.4375 20.75V20.9375C46.3958 21.7708 45.9688 22.7292 45.1562 23.8125C44.7812 24.25 44.3229 24.6458 43.7812 25C43.2396 25.3542 42.6771 25.5938 42.0938 25.7188L41.6562 25.8438L41.6875 26.8125C41.75 27.9375 41.9688 29 42.3438 30C42.8438 31.3333 43.4375 32 44.125 32C44.7083 32 45.375 31.4792 46.125 30.4375C46.7083 29.6042 47.5208 28.2292 48.5625 26.3125C48.9167 25.6458 49.1771 25.2188 49.3438 25.0312C49.5104 24.8229 49.6667 24.7188 49.8125 24.7188C49.8333 24.7188 49.8646 24.7292 49.9062 24.75C50.0729 24.7917 50.2083 24.8854 50.3125 25.0312C50.4167 25.1562 50.4688 25.2812 50.4688 25.4062C50.4479 25.6354 50.2188 26.1667 49.7812 27C49.3438 27.8333 48.8438 28.7188 48.2812 29.6562C47.7396 30.5938 47.2812 31.3125 46.9062 31.8125C45.9896 32.9375 45.0312 33.5 44.0312 33.5C43.7604 33.5 43.4792 33.4583 43.1875 33.375ZM42.7188 23.9688C43.3229 23.6562 43.8438 23.1875 44.2812 22.5625C44.7396 21.9375 44.9896 21.3646 45.0312 20.8438C45.0312 20.4271 44.9271 20.1562 44.7188 20.0312C44.5312 19.8854 44.3646 19.8125 44.2188 19.8125C44.0312 19.8125 43.8229 19.875 43.5938 20C43.2188 20.2083 42.8646 20.6771 42.5312 21.4062C42.1979 22.1354 41.9583 22.9688 41.8125 23.9062L41.75 24.3438L41.9688 24.2812C42.0521 24.2604 42.1562 24.2292 42.2812 24.1875C42.4271 24.125 42.5729 24.0521 42.7188 23.9688ZM49.6562 33.75C49.5521 33.6458 49.4688 33.5208 49.4062 33.375C49.3438 33.2083 49.2812 32.9479 49.2188 32.5938C49.1771 32.2188 49.125 31.6771 49.0625 30.9688C49.0208 30.5312 48.9896 29.8229 48.9688 28.8438C48.9479 27.8438 48.9375 26.7812 48.9375 25.6562C48.9375 24.5312 48.9479 23.5417 48.9688 22.6875C48.9896 21.8333 49.0208 21.3333 49.0625 21.1875C49.1667 20.8958 49.3125 20.7083 49.5 20.625C49.6875 20.5417 49.8333 20.5 49.9375 20.5C50.0625 20.5 50.1875 20.5312 50.3125 20.5938C50.3958 20.6354 50.4583 20.6979 50.5 20.7812C50.5625 20.8646 50.6042 21.0312 50.625 21.2812C50.6667 21.5312 50.6875 21.9062 50.6875 22.4062C50.7083 22.9062 50.7292 23.5938 50.75 24.4688L50.7812 27.8438L51.0938 27.0625C51.3021 26.4792 51.5938 25.8333 51.9688 25.125C52.3438 24.3958 52.6979 23.7708 53.0312 23.25C53.9688 21.7917 54.8125 21.0625 55.5625 21.0625H55.7188C55.9271 21.0625 56.125 21.1458 56.3125 21.3125C56.5208 21.4792 56.8229 21.8021 57.2188 22.2812C57.5729 22.7188 57.7708 23 57.8125 23.125C57.8542 23.25 57.875 23.3438 57.875 23.4062C57.875 23.5521 57.8021 23.6875 57.6562 23.8125C57.5104 23.9583 57.3229 24.0312 57.0938 24.0312C56.9271 24.0312 56.75 23.9583 56.5625 23.8125C56.375 23.6458 56.125 23.3646 55.8125 22.9688C55.6875 22.8229 55.5729 22.75 55.4688 22.75H55.4062C55.2812 22.7917 55.1042 22.9688 54.875 23.2812C53.2292 25.3854 52.0521 28.3229 51.3438 32.0938C51.2812 32.5104 51.2188 32.8229 51.1562 33.0312C51.1146 33.2396 51.0521 33.4062 50.9688 33.5312C50.9062 33.6354 50.8229 33.7292 50.7188 33.8125C50.5521 33.9583 50.3854 34.0312 50.2188 34.0312C50.0312 34.0312 49.8438 33.9375 49.6562 33.75ZM61.2188 17.5312C61.0312 17.3854 60.9271 17.2396 60.9062 17.0938C60.9062 16.9479 60.9062 16.8438 60.9062 16.7812C60.9062 16.6146 60.9583 16.4688 61.0625 16.3438C61.2083 16.1979 61.3646 16.1042 61.5312 16.0625C61.6979 16.0208 61.8229 16 61.9062 16C62.0104 16 62.1042 16.0208 62.1875 16.0625C62.4583 16.1875 62.5938 16.3229 62.5938 16.4688C62.5938 16.6146 62.5938 16.6979 62.5938 16.7188C62.5938 16.9896 62.4896 17.2292 62.2812 17.4375C62.1146 17.5417 61.9583 17.6042 61.8125 17.625C61.6875 17.6458 61.6042 17.6562 61.5625 17.6562C61.4167 17.6562 61.3021 17.6146 61.2188 17.5312ZM62.8438 33.1875C61.4896 33 60.5104 31.9896 59.9062 30.1562C59.7188 29.5729 59.5938 29.0208 59.5312 28.5C59.4688 27.9792 59.4375 27.2708 59.4375 26.375C59.4583 23.9583 59.7396 22.5 60.2812 22C60.4688 21.8542 60.6458 21.7812 60.8125 21.7812C60.8958 21.7812 60.9688 21.7917 61.0312 21.8125C61.2812 21.8958 61.4583 22.0833 61.5625 22.375C61.5625 22.4375 61.5625 22.5729 61.5625 22.7812C61.5625 22.9896 61.5417 23.2083 61.5 23.4375C61.3542 24.625 61.2812 25.6875 61.2812 26.625C61.2812 27.7292 61.3854 28.6458 61.5938 29.375C61.9479 30.7708 62.5208 31.5104 63.3125 31.5938C63.375 31.6146 63.4375 31.625 63.5 31.625C64.0417 31.625 64.6979 31.2396 65.4688 30.4688C65.9688 29.9688 66.4896 29.2917 67.0312 28.4375C67.5938 27.5625 68.0729 26.7812 68.4688 26.0938C68.6146 25.8646 68.7396 25.6667 68.8438 25.5C69.0521 25.1667 69.2708 25 69.5 25C69.7292 25 69.8854 25.0833 69.9688 25.25C70.0521 25.4167 70.0938 25.5729 70.0938 25.7188C70.0938 25.8438 70.0625 25.9896 70 26.1562C69.7708 26.6771 69.3958 27.3958 68.875 28.3125C68.3542 29.2083 67.9271 29.8854 67.5938 30.3438C67.1979 30.8646 66.7396 31.3646 66.2188 31.8438C65.6979 32.3229 65.2604 32.6562 64.9062 32.8438C64.3854 33.0938 63.8438 33.2188 63.2812 33.2188C63.1354 33.2188 62.9896 33.2083 62.8438 33.1875ZM70.875 43.9688C69.7292 43.4271 68.9688 41.125 68.5938 37.0625C68.5521 36.5208 68.5208 35.7812 68.5 34.8438C68.5 33.8854 68.5 33.0833 68.5 32.4375V30.4688C68.5208 29.1146 68.5521 28.0521 68.5938 27.2812C68.7604 24.6146 69.0312 21.9583 69.4062 19.3125C69.9062 15.8542 70.5938 13.3333 71.4688 11.75C72.0521 10.7708 72.7188 10.2813 73.4688 10.2813C73.5729 10.2813 73.6667 10.2917 73.75 10.3125C74.3958 10.4792 74.8125 10.875 75 11.5C75.1875 12.1042 75.2812 12.6667 75.2812 13.1875C75.2812 13.6875 75.2188 14.25 75.0938 14.875C74.8021 16.25 74.2917 17.5729 73.5625 18.8438C72.8333 20.1146 72.0521 21.0521 71.2188 21.6562C71.0729 21.7604 70.9479 21.8646 70.8438 21.9688C70.7604 22.0521 70.7188 22.1042 70.7188 22.125C70.7188 22.1458 70.6979 22.3542 70.6562 22.75C70.6354 23.125 70.5938 23.5833 70.5312 24.125C70.4271 25.2917 70.3438 26.4167 70.2812 27.5C70.2188 28.5833 70.1875 29.4167 70.1875 30V30.9062L70.5 30.8438C71.2292 30.6979 72.0312 30.3333 72.9062 29.75C73.8021 29.1458 74.625 28.4792 75.375 27.75C76.125 27.0208 76.6771 26.3958 77.0312 25.875C77.4479 25.2917 77.8021 25 78.0938 25C78.1354 25 78.1875 25.0104 78.25 25.0312C78.4167 25.0938 78.5 25.2292 78.5 25.4375C78.5 25.6458 78.4167 25.9271 78.25 26.2812C77.5 27.7188 76.4688 28.9583 75.1562 30C73.8646 31.0417 72.5 31.8125 71.0625 32.3125L71.5938 32.9688C73.1146 34.7188 73.875 36.7812 73.875 39.1562C73.875 39.4271 73.8646 39.6979 73.8438 39.9688C73.7812 41.5938 73.4062 42.7604 72.7188 43.4688C72.3229 43.9062 71.9167 44.125 71.5 44.125C71.2917 44.125 71.0833 44.0729 70.875 43.9688ZM71.8125 18.875C72.75 17.4375 73.3646 16.0729 73.6562 14.7813C73.7396 14.2813 73.7812 13.7813 73.7812 13.2813V13C73.7604 12.4167 73.6771 12.0625 73.5312 11.9375H73.4688C73.3229 11.9375 73.125 12.1667 72.875 12.625C72.5833 13.1667 72.3125 13.8646 72.0625 14.7188C71.8958 15.3438 71.7083 16.1354 71.5 17.0938C71.2917 18.0521 71.1562 18.7917 71.0938 19.3125C71.0729 19.4792 71.0625 19.5938 71.0625 19.6562C71.0625 19.7396 71.0729 19.7812 71.0938 19.7812C71.1146 19.7812 71.1458 19.7604 71.1875 19.7188C71.2292 19.6771 71.3021 19.5833 71.4062 19.4375C71.5312 19.2708 71.6667 19.0833 71.8125 18.875ZM71.875 42.0625C72.1667 41.4375 72.3229 40.875 72.3438 40.375C72.3646 39.875 72.375 39.5938 72.375 39.5312C72.375 38.6562 72.2708 37.8021 72.0625 36.9688C71.8125 36.0729 71.3646 35.1979 70.7188 34.3438C70.5729 34.1562 70.4375 34 70.3125 33.875C70.2083 33.75 70.1458 33.6875 70.125 33.6875C70.125 33.7292 70.125 33.9479 70.125 34.3438C70.1458 34.7188 70.1667 35.1771 70.1875 35.7188C70.2292 36.2396 70.2604 36.7604 70.2812 37.2812C70.3229 37.7812 70.3646 38.1875 70.4062 38.5C70.5521 39.6458 70.7188 40.5312 70.9062 41.1562C70.9688 41.3438 71.0417 41.5417 71.125 41.75C71.2083 41.9583 71.2917 42.1354 71.375 42.2812C71.4583 42.4062 71.5208 42.4688 71.5625 42.4688C71.5833 42.4688 71.625 42.4375 71.6875 42.375C71.75 42.2917 71.8125 42.1875 71.875 42.0625ZM78.6562 17.5313C78.4688 17.3854 78.3646 17.2396 78.3438 17.0938C78.3438 16.9479 78.3438 16.8438 78.3438 16.7813C78.3438 16.6146 78.3958 16.4688 78.5 16.3438C78.6458 16.1979 78.8021 16.1042 78.9688 16.0625C79.1354 16.0208 79.2604 16 79.3438 16C79.4479 16 79.5417 16.0208 79.625 16.0625C79.8958 16.1875 80.0312 16.3229 80.0312 16.4688C80.0312 16.6146 80.0312 16.6979 80.0312 16.7188C80.0312 16.9896 79.9271 17.2292 79.7188 17.4375C79.5521 17.5417 79.3958 17.6042 79.25 17.625C79.125 17.6458 79.0417 17.6563 79 17.6563C78.8542 17.6563 78.7396 17.6146 78.6562 17.5313ZM80.2812 33.1875C78.9271 33 77.9479 31.9896 77.3438 30.1562C77.1562 29.5729 77.0312 29.0208 76.9688 28.5C76.9062 27.9792 76.875 27.2708 76.875 26.375C76.8958 23.9583 77.1771 22.5 77.7188 22C77.9062 21.8542 78.0833 21.7812 78.25 21.7812C78.3333 21.7812 78.4062 21.7917 78.4688 21.8125C78.7188 21.8958 78.8958 22.0833 79 22.375C79 22.4375 79 22.5729 79 22.7812C79 22.9896 78.9792 23.2083 78.9375 23.4375C78.7917 24.625 78.7188 25.6875 78.7188 26.625C78.7188 27.7292 78.8229 28.6458 79.0312 29.375C79.3854 30.7708 79.9583 31.5104 80.75 31.5938C80.8125 31.6146 80.875 31.625 80.9375 31.625C81.4792 31.625 82.1354 31.2396 82.9062 30.4688C83.4062 29.9688 83.9271 29.2917 84.4688 28.4375C85.0312 27.5625 85.5104 26.7812 85.9062 26.0938C86.0521 25.8646 86.1771 25.6667 86.2812 25.5C86.4896 25.1667 86.7083 25 86.9375 25C87.1667 25 87.3229 25.0833 87.4062 25.25C87.4896 25.4167 87.5312 25.5729 87.5312 25.7188C87.5312 25.8438 87.5 25.9896 87.4375 26.1562C87.2083 26.6771 86.8333 27.3958 86.3125 28.3125C85.7917 29.2083 85.3646 29.8854 85.0312 30.3438C84.6354 30.8646 84.1771 31.3646 83.6562 31.8438C83.1354 32.3229 82.6979 32.6562 82.3438 32.8438C81.8229 33.0938 81.2812 33.2188 80.7188 33.2188C80.5729 33.2188 80.4271 33.2083 80.2812 33.1875ZM89.125 33.375C88.625 33.1875 88.2083 32.9062 87.875 32.5312C87.5417 32.1562 87.2604 31.7292 87.0312 31.25C86.3854 29.875 86.0417 28.6979 86 27.7188C85.9583 26.7188 85.9375 26.0938 85.9375 25.8438C85.9375 24.4062 86.1354 23.0729 86.5312 21.8438C86.9062 20.6771 87.3646 19.8125 87.9062 19.25C88.5729 18.6042 89.0833 18.2813 89.4375 18.2813C89.8125 18.2813 90.0208 18.2813 90.0625 18.2813C90.7292 18.2813 91.2812 18.5104 91.7188 18.9688C92.1562 19.4062 92.375 20 92.375 20.75V20.9375C92.3333 21.7708 91.9062 22.7292 91.0938 23.8125C90.7188 24.25 90.2604 24.6458 89.7188 25C89.1771 25.3542 88.6146 25.5938 88.0312 25.7188L87.5938 25.8438L87.625 26.8125C87.6875 27.9375 87.9062 29 88.2812 30C88.7812 31.3333 89.375 32 90.0625 32C90.6458 32 91.3125 31.4792 92.0625 30.4375C92.6458 29.6042 93.4583 28.2292 94.5 26.3125C94.8542 25.6458 95.1146 25.2188 95.2812 25.0312C95.4479 24.8229 95.6042 24.7188 95.75 24.7188C95.7708 24.7188 95.8021 24.7292 95.8438 24.75C96.0104 24.7917 96.1458 24.8854 96.25 25.0312C96.3542 25.1562 96.4062 25.2812 96.4062 25.4062C96.3854 25.6354 96.1562 26.1667 95.7188 27C95.2812 27.8333 94.7812 28.7188 94.2188 29.6562C93.6771 30.5938 93.2188 31.3125 92.8438 31.8125C91.9271 32.9375 90.9688 33.5 89.9688 33.5C89.6979 33.5 89.4167 33.4583 89.125 33.375ZM88.6562 23.9688C89.2604 23.6562 89.7812 23.1875 90.2188 22.5625C90.6771 21.9375 90.9271 21.3646 90.9688 20.8438C90.9688 20.4271 90.8646 20.1562 90.6562 20.0312C90.4688 19.8854 90.3021 19.8125 90.1562 19.8125C89.9688 19.8125 89.7604 19.875 89.5312 20C89.1562 20.2083 88.8021 20.6771 88.4688 21.4062C88.1354 22.1354 87.8958 22.9688 87.75 23.9062L87.6875 24.3438L87.9062 24.2812C87.9896 24.2604 88.0938 24.2292 88.2188 24.1875C88.3646 24.125 88.5104 24.0521 88.6562 23.9688ZM103.906 42.3438C103.802 42.2396 103.698 41.9896 103.594 41.5938C103.51 41.1979 103.417 40.5833 103.312 39.75C103.104 38.3958 102.865 36.4271 102.594 33.8438C102.323 31.2396 102.094 28.8854 101.906 26.7812C101.885 26.4062 101.854 26.1042 101.812 25.875C101.792 25.6458 101.771 25.5312 101.75 25.5312C101.729 25.5729 101.667 25.6875 101.562 25.875C101.479 26.0417 101.385 26.2604 101.281 26.5312C99.8438 29.7604 98.6146 31.625 97.5938 32.125C97.3229 32.25 97.0521 32.3125 96.7812 32.3125C96.5729 32.3125 96.375 32.2812 96.1875 32.2188C95.6042 31.9688 95.1875 31.5 94.9375 30.8125C94.6875 30.125 94.5625 29.375 94.5625 28.5625C94.5625 28.375 94.5729 28.1875 94.5938 28C94.6562 26.9583 94.8958 25.8958 95.3125 24.8125C95.5625 24.2292 95.8854 23.6979 96.2812 23.2188C96.6979 22.7396 97.1146 22.3958 97.5312 22.1875C97.8646 22.0625 98.1979 22 98.5312 22C98.7188 22 98.9167 22.0208 99.125 22.0625C99.6667 22.2083 100.146 22.4792 100.562 22.875C100.688 22.9792 100.792 23.0625 100.875 23.125L101 23.25C101.062 23.1875 101.125 23.0521 101.188 22.8438C101.271 22.6146 101.344 22.3958 101.406 22.1875C101.469 21.9583 101.51 21.7917 101.531 21.6875C101.531 21.5833 101.521 21.2188 101.5 20.5938C101.479 19.9688 101.458 19.2292 101.438 18.375V16.875C101.438 11.2708 101.99 7.3125 103.094 5C103.552 4.125 104.052 3.6875 104.594 3.6875C104.802 3.6875 105.021 3.75 105.25 3.875C105.604 4.0625 105.844 4.44792 105.969 5.03125C106.115 5.59375 106.188 6.46875 106.188 7.65625C106.188 8.53125 106.146 9.36458 106.062 10.1563C105.979 10.9479 105.844 11.8229 105.656 12.7813C105.135 15.3646 104.438 17.9896 103.562 20.6562L103.156 21.8438L103.25 23.8438C103.438 27.9271 103.667 31.6458 103.938 35C104.208 38.3333 104.469 40.5208 104.719 41.5625C104.76 41.75 104.792 41.8854 104.812 41.9688C104.833 42.0312 104.844 42.0729 104.844 42.0938C104.844 42.1354 104.833 42.1667 104.812 42.1875C104.792 42.2292 104.75 42.2812 104.688 42.3438C104.583 42.4479 104.49 42.5 104.406 42.5C104.323 42.5 104.271 42.5 104.25 42.5C104.104 42.5 103.99 42.4479 103.906 42.3438ZM103.688 14.8438C104.104 13.1146 104.396 11.5208 104.562 10.0625C104.604 9.6875 104.635 9.29167 104.656 8.875C104.677 8.4375 104.688 8.08333 104.688 7.8125C104.688 7.52083 104.677 7.25 104.656 7C104.656 6.5 104.635 6.17708 104.594 6.03125L104.5 5.78125L104.344 6.15625C104.219 6.48958 104.073 7.02083 103.906 7.75C103.74 8.47917 103.604 9.17708 103.5 9.84375C103.292 11.3229 103.167 13.1042 103.125 15.1875C103.104 15.6458 103.094 16 103.094 16.25C103.094 16.625 103.115 16.8125 103.156 16.8125C103.219 16.7708 103.396 16.1146 103.688 14.8438ZM97.8438 29.75C98.3646 29.0208 98.9479 27.9583 99.5938 26.5625C99.8229 26.1042 99.9688 25.7812 100.031 25.5938C100.094 25.4062 100.125 25.2604 100.125 25.1562C100.125 25.0938 100.115 25.0417 100.094 25C100.052 24.8542 99.9479 24.6875 99.7812 24.5C99.4062 23.9792 99.0208 23.7188 98.625 23.7188C98.2917 23.7188 97.9479 23.9271 97.5938 24.3438C97.0521 25.0104 96.6875 25.7708 96.5 26.625C96.3333 27.4792 96.25 28.1771 96.25 28.7188C96.25 29.1146 96.2812 29.4896 96.3438 29.8438C96.4479 30.3229 96.5521 30.5833 96.6562 30.625C96.7604 30.6667 96.8333 30.6875 96.875 30.6875C97 30.6875 97.1354 30.6146 97.2812 30.4688C97.4688 30.2812 97.6562 30.0417 97.8438 29.75Z" fill="white"/>
</svg>
