<svg width="48" height="48" viewBox="0 0 48 48" fill="none" xmlns="http://www.w3.org/2000/svg">
<rect width="48" height="48" rx="8" fill="#F4F6FF"/>
<g clip-path="url(#clip0_24_405)">
<path fill-rule="evenodd" clip-rule="evenodd" d="M31 21.3996L22.4 29.9996C21.9 30.4996 21.3 30.7996 20.7 30.9996L18 31.6996L16.8 31.9996C16.5 32.0996 16.2 31.9996 16 31.6996C16 31.4996 16 31.2996 16 31.1996L16.3 29.9996L17 27.3996C17.2 26.7996 17.5 26.1996 18 25.6996L26.6 16.9996C27.8 15.6996 29.7 15.6996 31 16.7996C32.3 17.9996 32.3 19.8996 31.2 21.1996C31.1 21.1996 31.1 21.2996 31 21.3996ZM19.4 26.9996C19.2 27.1996 19 27.4996 18.9 27.7996L18.5 29.3996L20.1 28.9996C20.4 28.9996 20.7 28.7996 21 28.5996L27.8 21.7996L26.3 20.2996L19.4 26.9996ZM29.6 18.3996C29.2 17.9996 28.5 17.9996 28 18.3996L27.6 18.7996L29.1 20.2996L29.6 19.9996C30 19.4996 30 18.7996 29.6 18.3996Z" fill="#2A47AA"/>
</g>
<defs>
<clipPath id="clip0_24_405">
<rect width="24" height="24" fill="white" transform="translate(12 12)"/>
</clipPath>
</defs>
</svg>
